<svg xmlns="http://www.w3.org/2000/svg" width="11.505" height="12.95" viewBox="0 0 11.505 12.95">
  <g id="noun_Next_69375" transform="translate(-9.226 -9.126)">
    <path id="Path_1572" data-name="Path 1572" d="M46.19,42.2a.624.624,0,0,1-.463-1.041l4.889-5.434-4.889-5.433a.624.624,0,0,1,.927-.835l5.266,5.851a.627.627,0,0,1,0,.835l-5.266,5.851a.628.628,0,0,1-.464.206Z" transform="translate(-31.348 -20.122)" fill="#707070"/>
    <path id="Path_1573" data-name="Path 1573" d="M30.19,42.2a.624.624,0,0,1-.463-1.041l4.889-5.434-4.889-5.433a.624.624,0,1,1,.927-.835l5.266,5.851a.627.627,0,0,1,0,.835l-5.266,5.851a.628.628,0,0,1-.464.206Z" transform="translate(-20.341 -20.122)" fill="#707070"/>
  </g>
</svg>
