<svg xmlns="http://www.w3.org/2000/svg" width="16.5" height="16.5" viewBox="0 0 16.5 16.5">
  <g id="noun_news_1537014" transform="translate(-2 -2)">
    <g id="Group_3385" data-name="Group 3385" transform="translate(2 2)">
      <path id="Path_9640" data-name="Path 9640" d="M18.156,8.875H15.063V3.031A1.013,1.013,0,0,0,14.031,2h-11A1.013,1.013,0,0,0,2,3.031V16.369A2.142,2.142,0,0,0,4.131,18.5H16.438A2.069,2.069,0,0,0,18.5,16.438V9.219A.325.325,0,0,0,18.156,8.875ZM4.131,17.813a1.452,1.452,0,0,1-1.444-1.444V3.031a.325.325,0,0,1,.344-.344h11a.325.325,0,0,1,.344.344V9.219c0,7.322-.206,7.769.516,8.594Zm13.681-1.375a1.375,1.375,0,0,1-2.75,0V9.563h2.75Z" transform="translate(-2 -2)" fill="#70ad3a"/>
      <path id="Path_9641" data-name="Path 9641" d="M8.344,12.125h2.75a.325.325,0,0,0,.344-.344V8.344A.325.325,0,0,0,11.094,8H8.344A.325.325,0,0,0,8,8.344v3.438A.325.325,0,0,0,8.344,12.125Zm.344-3.437H10.75v2.75H8.688Z" transform="translate(-5.938 -5.938)" fill="#70ad3a"/>
      <path id="Path_9642" data-name="Path 9642" d="M25.781,13H22.344a.344.344,0,0,0,0,.688h3.438a.344.344,0,0,0,0-.687Z" transform="translate(-15.125 -9.219)" fill="#70ad3a"/>
      <path id="Path_9643" data-name="Path 9643" d="M11.781,24H8.344a.344.344,0,0,0,0,.688h3.438a.344.344,0,0,0,0-.687Z" transform="translate(-5.938 -16.438)" fill="#70ad3a"/>
      <path id="Path_9644" data-name="Path 9644" d="M25.781,24H22.344a.344.344,0,0,0,0,.688h3.438a.344.344,0,0,0,0-.687Z" transform="translate(-15.125 -16.438)" fill="#70ad3a"/>
      <path id="Path_9645" data-name="Path 9645" d="M11.781,30H8.344a.344.344,0,0,0,0,.688h3.438a.344.344,0,0,0,0-.687Z" transform="translate(-5.938 -20.375)" fill="#70ad3a"/>
      <path id="Path_9646" data-name="Path 9646" d="M25.781,30H22.344a.344.344,0,0,0,0,.688h3.438a.344.344,0,0,0,0-.687Z" transform="translate(-15.125 -20.375)" fill="#70ad3a"/>
      <path id="Path_9647" data-name="Path 9647" d="M11.781,36H8.344a.344.344,0,0,0,0,.688h3.438a.344.344,0,0,0,0-.687Z" transform="translate(-5.938 -24.313)" fill="#70ad3a"/>
      <path id="Path_9648" data-name="Path 9648" d="M25.781,36H22.344a.344.344,0,0,0,0,.688h3.438a.344.344,0,0,0,0-.687Z" transform="translate(-15.125 -24.313)" fill="#70ad3a"/>
      <path id="Path_9649" data-name="Path 9649" d="M11.781,42H8.344a.344.344,0,0,0,0,.688h3.438a.344.344,0,0,0,0-.687Z" transform="translate(-5.938 -28.25)" fill="#70ad3a"/>
      <path id="Path_9650" data-name="Path 9650" d="M25.781,42H22.344a.344.344,0,0,0,0,.688h3.438a.344.344,0,0,0,0-.687Z" transform="translate(-15.125 -28.25)" fill="#70ad3a"/>
    </g>
  </g>
</svg>
